<?xml version="1.0" standalone="no"?>
<!DOCTYPE svg PUBLIC "-//W3C//DTD SVG 20010904//EN"
 "http://www.w3.org/TR/2001/REC-SVG-20010904/DTD/svg10.dtd">
<svg version="1.0" xmlns="http://www.w3.org/2000/svg"
 width="500.000000pt" height="500.000000pt" viewBox="0 0 500.000000 500.000000"
 preserveAspectRatio="xMidYMid meet">

<g transform="translate(0.000000,500.000000) scale(0.100000,-0.100000)"
fill="#000000" stroke="none">
<path d="M1613 2910 c-46 -28 -66 -73 -66 -150 -1 -72 16 -116 59 -149 34 -26
129 -29 180 -5 l34 16 0 74 0 74 -65 0 c-63 0 -65 -1 -65 -25 0 -21 5 -25 30
-25 28 0 30 -3 30 -35 0 -29 -4 -36 -25 -41 -69 -17 -109 26 -108 117 1 67 20
105 58 115 29 7 75 -18 75 -41 0 -10 11 -15 35 -15 39 0 42 8 20 50 -30 59
-128 79 -192 40z"/>
<path d="M1880 2800 c0 -185 16 -210 136 -210 48 0 60 4 84 28 34 35 42 80 38
212 l-3 95 -32 3 -33 3 0 -115 c0 -63 -4 -126 -10 -140 -11 -30 -51 -43 -85
-28 -24 11 -24 15 -27 144 l-3 133 -32 3 -33 3 0 -131z"/>
<path d="M2197 2923 c-4 -3 -7 -80 -7 -170 l0 -163 115 0 115 0 0 30 0 30 -80
0 -80 0 0 40 0 40 70 0 70 0 0 30 0 30 -70 0 -70 0 0 40 0 40 80 0 80 0 0 30
0 30 -108 0 c-60 0 -112 -3 -115 -7z"/>
<path d="M2468 2924 c-5 -4 -8 -81 -8 -172 l0 -164 90 4 c78 4 93 7 116 29 37
33 54 79 54 141 0 65 -25 116 -70 142 -34 20 -168 35 -182 20z m157 -79 c21
-20 25 -34 25 -88 0 -79 -21 -107 -80 -107 l-40 0 0 110 0 110 35 0 c25 0 44
-8 60 -25z"/>
<path d="M2780 2760 l0 -170 110 0 110 0 0 30 0 30 -80 0 -80 0 0 40 0 39 68
3 c64 3 67 4 67 28 0 24 -3 25 -67 28 l-68 3 0 39 0 40 80 0 80 0 0 30 0 30
-110 0 -110 0 0 -170z"/>
<path d="M1856 2260 c-68 -21 -96 -86 -60 -139 9 -12 49 -38 90 -56 76 -35 87
-50 58 -79 -30 -31 -104 -13 -104 24 0 16 -7 20 -35 20 -27 0 -35 -4 -35 -18
0 -49 63 -92 135 -92 100 0 155 81 101 149 -6 8 -44 29 -83 47 -61 28 -73 37
-73 58 0 43 67 50 98 11 14 -17 30 -25 52 -25 28 0 31 2 25 23 -11 35 -45 66
-84 77 -41 11 -46 11 -85 0z"/>
<path d="M2163 2243 c-7 -22 -52 -144 -87 -238 -14 -39 -26 -74 -26 -78 0 -4
15 -7 34 -7 30 0 36 4 46 35 l12 35 63 0 63 0 12 -35 c10 -31 15 -35 46 -35
41 0 41 -7 -11 130 -18 47 -43 113 -56 148 -23 59 -26 62 -57 62 -22 0 -35 -6
-39 -17z m76 -180 c1 -9 -13 -13 -40 -13 -35 0 -40 3 -34 18 4 9 14 37 23 62
l15 45 18 -50 c10 -28 18 -56 18 -62z"/>
<path d="M2400 2090 l0 -170 105 0 105 0 0 30 0 30 -75 0 -75 0 0 140 0 140
-30 0 -30 0 0 -170z"/>
<path d="M2660 2090 l0 -170 110 0 110 0 0 30 0 30 -80 0 -80 0 0 45 0 45 70
0 c68 0 70 1 70 25 0 24 -2 25 -70 25 l-70 0 0 45 0 45 80 0 c79 0 80 0 80 25
l0 25 -110 0 -110 0 0 -170z"/>
</g>
</svg>
